<svg width="25" height="24" viewBox="0 0 25 24" fill="none" xmlns="http://www.w3.org/2000/svg">
<path d="M10.5299 14.3H11.9V18.7299L11.9 18.762C11.9 19.18 11.9 19.5357 11.9274 19.7907C11.9412 19.9191 11.966 20.0698 12.0263 20.2046C12.0916 20.3507 12.2299 20.5404 12.4887 20.5974C12.7474 20.6544 12.9527 20.5403 13.0733 20.4352C13.1846 20.3382 13.2704 20.2119 13.3369 20.1012C13.4689 19.8813 13.6184 19.5585 13.794 19.1791L13.8075 19.15L16.5388 13.2503L16.5559 13.2134C16.8372 12.6058 17.072 12.0988 17.1935 11.6859C17.32 11.2564 17.3625 10.8046 17.099 10.3923C16.8356 9.97997 16.4077 9.82878 15.9648 9.7631C15.5391 9.69995 14.9803 9.69997 14.3108 9.7L14.2701 9.7H12.9V5.27013L12.9 5.23804C12.9 4.82003 12.9 4.4643 12.8726 4.20926C12.8588 4.08088 12.834 3.93022 12.7737 3.79539C12.7084 3.64932 12.57 3.4596 12.3113 3.40262C12.0526 3.34563 11.8473 3.45966 11.7267 3.56479C11.6154 3.66183 11.5295 3.78811 11.4631 3.89881C11.331 4.11873 11.1816 4.44155 11.006 4.82089L10.9925 4.85L8.26119 10.7497L8.24409 10.7866C7.96279 11.3942 7.72804 11.9012 7.60646 12.3141C7.48002 12.7436 7.43746 13.1954 7.70095 13.6077C7.96443 14.02 8.39231 14.1712 8.83514 14.2369C9.26092 14.3 9.81964 14.3 10.4891 14.3L10.5299 14.3Z" fill="#EB9617" stroke="#EB9617"/>
</svg>