<svg width="16" height="16" viewBox="0 0 16 16" fill="none" xmlns="http://www.w3.org/2000/svg">
<path d="M8.19328 5.76C7.98661 5.76 7.81328 5.69 7.67328 5.55C7.53328 5.41 7.46328 5.23667 7.46328 5.03C7.46328 4.82333 7.53328 4.65 7.67328 4.51C7.81328 4.37 7.98661 4.3 8.19328 4.3C8.39328 4.3 8.56328 4.37 8.70328 4.51C8.84328 4.65 8.91328 4.82333 8.91328 5.03C8.91328 5.23667 8.84328 5.41 8.70328 5.55C8.56328 5.69 8.39328 5.76 8.19328 5.76ZM8.75328 6.49V12H7.61328V6.49H8.75328Z" fill="#586586"/>
<rect x="0.5" y="0.5" width="15" height="15" rx="7.5" stroke="#586586"/>
</svg>
