<svg width="56" height="27" viewBox="0 0 56 27" fill="none" xmlns="http://www.w3.org/2000/svg">
<path fill-rule="evenodd" clip-rule="evenodd" d="M53.7322 0.536566C51.819 -0.568003 49.3726 0.0874974 48.2681 2.00067C47.4707 3.38182 47.5905 5.04085 48.4387 6.27232L33.283 21.428C31.9111 20.3229 30.1668 19.6613 28.2681 19.6613C26.2326 19.6613 24.3746 20.4216 22.9626 21.6735L7.56157 6.27249C8.40964 5.04103 8.52949 3.38206 7.7321 2.00095C6.62753 0.0877806 4.18117 -0.56772 2.268 0.536849C0.354831 1.64142 -0.300669 4.08778 0.8039 6.00095C1.86603 7.84062 4.16884 8.5174 6.04525 7.58459L21.6403 23.1797C20.7741 24.4582 20.2681 26.0007 20.2681 27.6613H36.2681C36.2681 25.8628 35.6746 24.2029 34.6727 22.8667L49.9551 7.58438C51.8314 8.51708 54.1342 7.84029 55.1963 6.00067C56.3008 4.0875 55.6453 1.64114 53.7322 0.536566Z" fill="#EAE8E1"/>
</svg>
