<?xml version="1.0" encoding="UTF-8"?><svg id="Layer_1" xmlns="http://www.w3.org/2000/svg" viewBox="0 0 64 64"><defs><style>.cls-1{fill:#212837;}.cls-2{fill:#7db957;}.cls-3{fill:#b7e1da;}</style></defs><circle class="cls-1" cx="32" cy="32" r="32"/><circle class="cls-3" cx="32.02" cy="32" r="6.14"/><path class="cls-3" d="M46.31,30.31h0c-.79,0-1.46-.54-1.64-1.31-1.13-4.77-4.88-8.53-9.65-9.65-.77-.18-1.31-.86-1.31-1.64h0c0-1.08,1.01-1.89,2.05-1.64,6.03,1.42,10.78,6.14,12.17,12.17,.25,1.08-.54,2.07-1.62,2.07Z"/><path class="cls-3" d="M56.03,30.31h0c-.86,0-1.58-.63-1.69-1.46-1.4-9.92-9.25-17.78-19.17-19.17-.83-.11-1.46-.83-1.46-1.69h0c0-1.04,.92-1.85,1.94-1.69,11.43,1.6,20.5,10.64,22.1,22.1,.14,1.01-.68,1.91-1.71,1.91Z"/><g><path class="cls-2" d="M28.65,19.02c.95,0,1.69-.77,1.69-1.69s-.74-1.67-1.67-1.67H15.68v14.65h.09c-.07,.56-.09,1.13-.09,1.69s.05,1.13,.09,1.69h-.09v25.84c1.08,.64,2.2,1.22,3.35,1.73V19.02h9.61Z"/><path class="cls-2" d="M40.78,52.79l-3.11-5.42c5.11-1.89,9.02-6.23,10.28-11.61,.25-1.06-.56-2.07-1.64-2.07-.79,0-1.46,.54-1.64,1.31-1.04,4.46-4.39,8.03-8.71,9.41-.72,.23-1.49,.41-2.25,.5-.43,.05-.86,.07-1.28,.09l1.28,2.23,.56,.99,3.24,5.67,1.76,3.06,3.06,5.36c1.08-.37,2.13-.79,3.15-1.27l-3.01-5.27-1.69-2.97Z"/></g></svg>