<?xml version="1.0" encoding="UTF-8"?><svg id="Layer_1" xmlns="http://www.w3.org/2000/svg" viewBox="0 0 1200 232.38"><defs><style>.cls-1{fill:#fff;}</style></defs><circle cx="116.19" cy="116.19" r="116.19"/><circle class="cls-1" cx="116.27" cy="116.19" r="22.31"/><path class="cls-1" d="M168.16,110.06h0c-2.86,0-5.31-1.96-5.96-4.74-4.09-17.32-17.73-30.97-35.05-35.05-2.78-.65-4.74-3.11-4.74-5.96h0c0-3.92,3.68-6.86,7.44-5.96,21.9,5.15,39.14,22.31,44.21,44.21,.9,3.92-1.96,7.52-5.88,7.52Z"/><path class="cls-1" d="M203.46,110.06h0c-3.11,0-5.72-2.29-6.13-5.31-5.07-36.03-33.58-64.55-69.62-69.62-3.02-.41-5.31-3.02-5.31-6.13h0c0-3.76,3.35-6.7,7.03-6.13,41.51,5.8,74.44,38.65,80.24,80.24,.49,3.68-2.45,6.95-6.21,6.95Z"/><g><path class="cls-1" d="M104.02,69.05c3.43,0,6.13-2.78,6.13-6.13s-2.7-6.05-6.05-6.05H56.95v53.19h.33c-.25,2.04-.33,4.09-.33,6.13s.16,4.09,.33,6.13h-.33v93.84c3.92,2.33,7.98,4.43,12.17,6.29V69.05h34.89Z"/><path class="cls-1" d="M148.06,191.69l-11.28-19.69c18.55-6.86,32.77-22.63,37.34-42.16,.9-3.84-2.04-7.52-5.96-7.52-2.86,0-5.31,1.96-5.96,4.74-3.76,16.18-15.93,29.17-31.62,34.15-2.61,.82-5.39,1.47-8.17,1.8-1.55,.16-3.1,.25-4.66,.33l4.66,8.09,2.04,3.6,11.77,20.59,6.37,11.11,11.11,19.47c3.91-1.33,7.72-2.87,11.43-4.6l-10.94-19.12-6.13-10.79Z"/></g><g><path class="cls-1" d="M845.38,41.84c-43.55,0-79.01,35.46-79.01,79.01s35.46,79.01,79.01,79.01,79.01-35.46,79.01-79.01-35.46-79.01-79.01-79.01Zm56.95,78.93c0,31.46-25.58,56.95-56.95,56.95s-56.95-25.58-56.95-56.95,25.58-56.95,56.95-56.95,56.95,25.58,56.95,56.95Z"/><path class="cls-1" d="M845.38,103.2c-9.72,0-17.57,7.93-17.57,17.57s7.93,17.57,17.57,17.57,17.57-7.93,17.57-17.57-7.93-17.57-17.57-17.57Z"/><path class="cls-1" d="M385.35,166.12c-3.43-4.41-7.03-9.07-10.87-13.97-3.84-4.9-7.76-9.89-11.77-14.87,10.7-3.84,18.88-9.64,24.68-17.4,5.72-7.76,8.66-17.16,8.66-28.11,0-15.85-5.31-28.11-15.85-36.93-10.62-8.74-26.72-13.16-48.37-13.16-7.19,0-14.38,.33-21.49,.98-7.19,.65-13.32,1.88-18.55,3.76-2.86,.82-5.07,2.04-6.62,3.6s-2.37,3.76-2.37,6.62V185.73c0,4.49,1.14,7.68,3.35,9.64,2.29,1.88,5.96,2.86,11.11,2.86,2.7,0,5.07-.25,7.27-.65,2.12-.41,3.92-.9,5.23-1.39v-54.83h28.03l32.28,46.57c2.37,3.35,4.66,5.96,7.03,7.84s5.47,2.86,9.48,2.86c3.35,0,6.46-.98,9.23-3.02,2.86-1.96,4.66-4.9,5.47-8.74-1.63-2.37-3.84-5.31-6.62-8.91-2.86-3.43-5.96-7.44-9.32-11.85Zm-25.9-53.19c-6.37,4.66-14.95,7.03-25.74,7.03h-24.27v-54.58c3.02-.49,6.37-.9,10.13-1.23s7.52-.49,11.36-.49c12.5,0,21.98,2.37,28.44,7.03,6.46,4.66,9.64,11.68,9.64,21-.08,9.48-3.27,16.59-9.56,21.24Z"/><path class="cls-1" d="M536.02,175.19h-72.07v-45.51h56.54c3.02,0,5.39-.9,7.11-2.78,1.72-1.8,2.61-4.66,2.61-8.5,0-2.21-.33-4.17-.9-5.96-.57-1.8-1.31-3.27-2.12-4.25h-63.33v-41.59h64.06c3.02,0,5.39-.98,7.11-3.02,1.72-1.96,2.61-4.82,2.61-8.5,0-2.21-.33-4.17-.9-5.96-.57-1.8-1.31-3.27-2.12-4.25h-82.61c-4.33,0-7.84,1.31-10.54,3.84-2.7,2.61-4,6.05-4,10.38v123.38c0,4.33,1.31,7.84,4,10.54,2.7,2.7,6.13,4,10.54,4h77.3c3.02,0,5.39-.98,7.11-2.86,1.72-1.88,2.61-4.82,2.61-8.66,0-2.21-.33-4.17-.98-5.96-.65-1.88-1.39-3.27-2.04-4.33Z"/><path class="cls-1" d="M735.23,150.35c-.65-9.4-1.39-19.2-2.29-29.25-.82-10.05-1.63-19.61-2.53-28.68-.82-8.99-1.63-17-2.53-23.86-.82-6.95-1.55-11.85-2.29-14.87-.82-3.19-2.61-5.56-5.39-7.27-2.78-1.63-6.86-2.53-12.42-2.53-2.86,0-5.56,.33-8.25,.98s-4.9,1.39-6.78,2.29c-2.37,5.31-4.9,11.36-7.6,17.98-2.78,6.7-5.64,13.73-8.74,21.24s-6.29,15.36-9.48,23.53c-3.27,8.17-6.46,16.42-9.64,24.76h-1.23c-2.53-5.96-5.07-12.42-7.76-19.28-2.7-6.86-5.39-13.73-8.25-20.67s-5.64-13.73-8.5-20.51c-2.86-6.78-5.56-13.07-8.25-18.88-1.8-3.84-4.33-6.7-7.52-8.66-3.19-1.88-7.44-2.86-12.75-2.86-4.49,0-8.33,.74-11.36,2.29-3.1,1.47-5.31,2.94-6.62,4.25-.65,7.68-1.31,16.02-1.96,25.17-.65,9.07-1.31,18.38-2.04,27.78-.65,9.4-1.31,18.71-1.88,27.86-.57,9.15-1.06,17.57-1.47,25.17s-.74,14.14-.98,19.61-.41,9.31-.41,11.52c0,7.35,4.49,11.03,13.48,11.03,2.37,0,4.58-.25,6.62-.65,2.12-.41,3.76-.9,5.15-1.39,.65-11.36,1.31-21.9,1.88-31.79,.57-9.81,1.14-19.53,1.63-29.01,.49-9.48,.98-19.2,1.39-29.17,.41-9.89,.9-20.84,1.39-32.68h1.23c3.35,9.15,7.76,20.59,13.4,34.24,5.56,13.65,12.26,29.33,19.86,47.07,.98,2.37,2.78,4.09,5.39,5.15,2.61,1.06,5.64,1.63,9.15,1.63,3.02,0,5.64-.41,8.01-1.23,2.37-.82,4.17-1.8,5.47-3.02,8.5-20.67,15.44-37.59,20.92-50.82,5.39-13.16,9.72-24.02,12.91-32.52h.98c.33,5.8,.74,12.91,1.14,21.24s.9,17.4,1.39,27.29c.49,9.81,1.06,20.26,1.63,31.3s1.23,22.23,1.88,33.5c.33,4.17,1.8,7.03,4.41,8.5,2.61,1.47,5.64,2.29,9.15,2.29,2.86,0,5.31-.33,7.35-.9,2.12-.57,4-1.47,5.88-2.61-.16-4.49-.49-10.7-.98-18.63-.57-7.84-1.14-16.51-1.8-25.9Z"/><path class="cls-1" d="M1062.89,45.35h-108.84c-3.02,0-5.39,.98-7.11,2.86s-2.61,4.74-2.61,8.42c0,2.37,.33,4.41,.9,6.29,.57,1.8,1.31,3.35,2.12,4.49h44.29v118.73c0,4.49,1.06,7.68,3.27,9.64,2.21,1.88,5.8,2.86,11.03,2.86,2.53,0,4.9-.25,7.11-.65,2.29-.41,3.92-.9,5.15-1.39V67.33h37.75c6.54,0,9.72-3.92,9.72-11.77,0-2.21-.33-4.17-.9-5.96-.57-1.88-1.23-3.27-1.88-4.25Z"/><path class="cls-1" d="M1199.02,179.93c-.65-1.8-1.31-3.27-1.96-4.25h-72.07v-45.51h56.54c3.02,0,5.39-.9,7.11-2.78,1.72-1.8,2.61-4.66,2.61-8.5,0-2.21-.33-4.17-.9-5.96s-1.31-3.27-2.12-4.25h-63.24v-41.59h64.06c3.02,0,5.39-.98,7.11-3.02,1.72-1.96,2.61-4.82,2.61-8.5,0-2.21-.33-4.17-.9-5.96s-1.31-3.27-2.12-4.25h-82.77c-4.33,0-7.84,1.31-10.54,3.84-2.7,2.61-4,6.05-4,10.38v123.38c0,4.33,1.31,7.84,4,10.54,2.7,2.7,6.13,4,10.54,4h77.3c3.02,0,5.39-.98,7.11-2.86s2.61-4.82,2.61-8.66c0-2.21-.33-4.25-.98-6.05Z"/></g></svg>